<svg width="24" height="24" viewBox="0 0 24 24" fill="none" xmlns="http://www.w3.org/2000/svg">
<circle cx="12" cy="12" r="12" fill="#EC1414"/>
<path d="M13.2676 5.78125L12.9453 15.6543H10.6016L10.2695 5.78125H13.2676ZM10.1914 18.7109C10.1914 18.2943 10.3346 17.9492 10.6211 17.6758C10.9141 17.3958 11.2982 17.2559 11.7734 17.2559C12.2552 17.2559 12.6393 17.3958 12.9258 17.6758C13.2122 17.9492 13.3555 18.2943 13.3555 18.7109C13.3555 19.1146 13.2122 19.4564 12.9258 19.7363C12.6393 20.0163 12.2552 20.1562 11.7734 20.1562C11.2982 20.1562 10.9141 20.0163 10.6211 19.7363C10.3346 19.4564 10.1914 19.1146 10.1914 18.7109Z" fill="white"/>
</svg>
